<!-- <svg fill="#ffffff" viewBox="0 -6 46 46" xmlns="http://www.w3.org/2000/svg" stroke="#ffffff"><g id="SVGRepo_bgCarrier" stroke-width="0"></g><g id="SVGRepo_tracerCarrier" stroke-linecap="round" stroke-linejoin="round"></g><g id="SVGRepo_iconCarrier"> <path id="_26.Camera-Back" data-name="26.Camera-Back" d="M43,41H5a4,4,0,0,1-4-4V15a4,4,0,0,1,4-4h9a3.7,3.7,0,0,0,2-1l2-2a2.781,2.781,0,0,1,2-1h8a2.549,2.549,0,0,1,2,1l2,2a3.7,3.7,0,0,0,2,1h2a2,2,0,0,1,2-2h2a2,2,0,0,1,2,2h1a4,4,0,0,1,4,4V37A4,4,0,0,1,43,41Zm2-26a2,2,0,0,0-2-2l-2.96,0c-.014,0-.026,0-.04,0H38c-.023,0-.046-.006-.069-.007l-4.151-.006a5.632,5.632,0,0,1-3.193-1.573l-2.13-2.13-.1-.151A.612.612,0,0,0,28,9H20a.817.817,0,0,0-.424.231l-.075.1-2.087,2.086a5.63,5.63,0,0,1-3.193,1.573L5,13a2,2,0,0,0-2,2V37a2,2,0,0,0,2,2H43a2,2,0,0,0,2-2ZM41,35H39a1,1,0,0,1,0-2h2a1,1,0,0,1,0,2Zm0-4H39a1,1,0,0,1,0-2h2a1,1,0,0,1,0,2Zm-3.5-5A4.5,4.5,0,1,1,42,21.5,4.5,4.5,0,0,1,37.5,26Zm0-7A2.5,2.5,0,1,0,40,21.5,2.5,2.5,0,0,0,37.5,19ZM34,29h2a1,1,0,0,1,0,2H34a1,1,0,0,1,0-2Zm0,4h2a1,1,0,0,1,0,2H34a1,1,0,0,1,0-2Zm-5,3H7a1,1,0,0,1-1-1V17a1,1,0,0,1,1-1H29a1,1,0,0,1,1,1V35A1,1,0,0,1,29,36Zm-6.281-2a7.153,7.153,0,0,0-.531-1.062c0-.007-.278-.735-1.969-.82h0a1.269,1.269,0,0,1-1.262-1.393c0-.251.02-1.095.02-1.095l0,0s-.011-.825-.011-.825a3.61,3.61,0,0,0,1.013-.766,5.4,5.4,0,0,0,.748-1.185,19.767,19.767,0,0,0,.25-2.286A3.013,3.013,0,0,0,18,21.985v0a2.875,2.875,0,0,0-2.973,2.585,19.68,19.68,0,0,0,.219,2.286,5.945,5.945,0,0,0,.779,1.185,3.832,3.832,0,0,0,.981.766s-.009.825-.011.825l0,0s.02.844.02,1.095a1.291,1.291,0,0,1-1.293,1.393h0c-1.69.085-1.9.813-1.906.82A6.777,6.777,0,0,0,13.25,34ZM28,18H8V34h2.787a8.072,8.072,0,0,1,.779-1.462c.02-.011.639-2.211,3.961-2.252a5.569,5.569,0,0,1-.723-.714,3.359,3.359,0,0,1-1.443-2.108,21.921,21.921,0,0,1-.4-2.893A4.675,4.675,0,0,1,17.951,20h.1c3,0,4.929,1.986,4.929,4.575a22.678,22.678,0,0,1-.37,2.893,3.355,3.355,0,0,1-1.35,2.108c-.25.245-.778.7-.785.714,3.322.041,3.941,2.241,3.961,2.252A8.01,8.01,0,0,1,25.213,34H28Z" transform="translate(-1 -7)" fill-rule="evenodd"></path> </g></svg> -->
<svg fill="#ffff" version="1.1" id="Layer_1" xmlns="http://www.w3.org/2000/svg" xmlns:xlink="http://www.w3.org/1999/xlink" viewBox="0 0 100 100" enable-background="new 0 0 100 100" xml:space="preserve" stroke="#ffff"><g id="SVGRepo_bgCarrier" stroke-width="0"></g><g id="SVGRepo_tracerCarrier" stroke-linecap="round" stroke-linejoin="round"></g><g id="SVGRepo_iconCarrier"> <g> <path d="M51.016,36.562c-10.369,0-18.805,8.437-18.805,18.806s8.436,18.806,18.805,18.806c10.37,0,18.807-8.437,18.807-18.806 S61.386,36.562,51.016,36.562z M51.016,70.173c-8.164,0-14.805-6.642-14.805-14.806s6.641-14.806,14.805-14.806 c8.164,0,14.807,6.642,14.807,14.806S59.18,70.173,51.016,70.173z"></path> <path d="M51.152,43.314c-6.721,0-12.189,5.468-12.189,12.188c0,1.104,0.896,2,2,2s2-0.896,2-2c0-4.515,3.674-8.188,8.189-8.188 c1.104,0,2-0.896,2-2S52.257,43.314,51.152,43.314z"></path> <path d="M84,26h-2v-2.542C82,20.227,79.483,18,76.016,18h-9C63.586,18,61,20.278,61,23.458V26H18c-5.514,0-10,4.367-10,9.881v38 C8,79.395,12.486,84,18,84h66c5.514,0,10-4.605,10-10.119v-38C94,30.367,89.514,26,84,26z M65,23.458 C65,21.925,66.809,22,67.016,22h9C76.348,22,78,21.957,78,23.458V26H65V23.458z M90,74c0,3.313-2.687,6-6,6H18 c-3.313,0-6-2.687-6-6V36c0-3.313,2.687-6,6-6h66c3.313,0,6,2.687,6,6V74z"></path> </g> </g></svg>